<svg width="24" height="24" viewBox="0 0 24 24" fill="none" xmlns="http://www.w3.org/2000/svg">
<path d="M2.70142 11.7891C2.72845 10.6079 2.97173 9.46175 3.42855 8.38321C3.89618 7.27495 4.56655 6.28291 5.42073 5.42603C6.2749 4.56915 7.26964 3.89879 8.37791 3.43115C9.52402 2.9473 10.7404 2.70132 11.9973 2.70132C13.2543 2.70132 14.4707 2.9473 15.6141 3.43115C16.7192 3.89783 17.7227 4.57542 18.5686 5.42603C18.8362 5.69364 19.0875 5.97747 19.32 6.27481L17.6928 7.54526C17.6606 7.57016 17.636 7.60365 17.622 7.64187C17.608 7.68009 17.6051 7.72149 17.6136 7.7613C17.622 7.80112 17.6416 7.83773 17.6699 7.86694C17.6983 7.89614 17.7343 7.91675 17.7738 7.92639L22.5232 9.08872C22.6583 9.12116 22.7908 9.01844 22.7908 8.88058L22.8124 3.99069C22.8124 3.80959 22.6043 3.70687 22.4637 3.8204L20.9392 5.01246C18.8605 2.35262 15.6276 0.646973 11.9946 0.646973C5.80186 0.646973 0.763304 5.60984 0.647071 11.7783C0.646349 11.8071 0.65141 11.8358 0.661954 11.8627C0.672497 11.8896 0.688312 11.9141 0.708464 11.9347C0.728617 11.9554 0.752701 11.9718 0.779296 11.983C0.805891 11.9942 0.834459 12 0.863318 11.9999H2.48517C2.60411 11.9999 2.69872 11.9053 2.70142 11.7891ZM23.1368 11.9999H21.5149C21.396 11.9999 21.3014 12.0946 21.2987 12.2108C21.2716 13.392 21.0284 14.5381 20.5715 15.6167C20.1039 16.7249 19.4335 17.7197 18.5794 18.5739C17.7172 19.4396 16.6922 20.126 15.5635 20.5937C14.4347 21.0613 13.2245 21.3009 12.0027 21.2986C10.7814 21.3009 9.57163 21.0613 8.44332 20.5936C7.31501 20.126 6.29048 19.4395 5.42884 18.5739C5.16123 18.3063 4.90984 18.0224 4.67738 17.7251L6.30464 16.4546C6.33683 16.4297 6.36135 16.3962 6.37536 16.358C6.38937 16.3198 6.39231 16.2784 6.38383 16.2386C6.37536 16.1988 6.35583 16.1622 6.32747 16.133C6.29911 16.1038 6.26309 16.0831 6.22354 16.0735L1.47422 14.9112C1.33906 14.8787 1.20661 14.9815 1.20661 15.1193L1.18769 20.0119C1.18769 20.193 1.39583 20.2957 1.53639 20.1822L3.06093 18.9901C5.13961 21.6473 8.3725 23.3529 12.0055 23.3529C18.2009 23.3529 23.2368 18.3873 23.353 12.2216C23.3537 12.1928 23.3487 12.164 23.3381 12.1372C23.3276 12.1103 23.3118 12.0858 23.2916 12.0652C23.2715 12.0445 23.2474 12.0281 23.2208 12.0169C23.1942 12.0057 23.1656 11.9999 23.1368 11.9999Z" fill="white"/>
</svg>
